Genre:Comedy | Drama 
Language:English
IMDb:http://www.imdb.com/title/tt1235807/
Source:DvD

General
Complete name :Stay.Cool.2009.DVDRip.XviD.Feel-Free
Format : AVI
Format/Info : Audio Video Interleave
File size : 891 MiB
Duration : 1h 32mn
Overall bit rate : 1 341 Kbps
Video
Format : xvid
Codec ID : xvid
Duration : 1h 32mn
Bit rate : 1 200 Kbps
Width : 720 pixels
Height : 304 pixels
Display aspect ratio : 2.35:1
Frame rate : 25.000 fps
Resolution : 24 bits
Bits/(Pixel*Frame) : 0.219
Stream size : 797 MiB (89%)
Audio #1
ID : 1
Format : MPEG Audio
Format version : Version 1
Format profile : Layer 3
Codec ID : 55
Codec ID/Hint : MP3
Duration : 1h 32mn
Bit rate mode : Constant
Bit rate : 128 Kbps
Channel(s) : 2 channels
Sampling rate : 48.0 KHz
Resolution : 16 bits
Stream size : 85.0 MiB (10%)
Alignment : Aligned on interleaves
Interleave, duration : 24 ms (0.60 video frame)
Interleave, preload duration : 24 ms
Writing library : LAME3.97

Plot
An author who returns to his hometown to deliver a commencement address to a class of graduating high school students has to deal with his feelings for an old flame as well as the advances of a student who has the hots for him.






================================== 
http://thepiratebay.org/user/hiest
==================================







Screenshots:
 
http://www.starshare.ro/bitbucket/Stay.Cool.2009.DVDRip.XviD.Feel-Free.avi_thumbs_%5B2010.08.31_19.17.31%5D.jpg
 
http://www.starshare.ro/bitbucket/Stay.Cool.2009.DVDRip.XviD.Feel-Free.avi_snapshot_00.05.11_%5B2010.08.31_19.18.18%5D.jpg
 
http://www.starshare.ro/bitbucket/Stay.Cool.2009.DVDRip.XviD.Feel-Free.avi_snapshot_01.20.53_%5B2010.08.31_19.18.27%5D.jpg
 
http://www.starshare.ro/bitbucket/Stay.Cool.2009.DVDRip.XviD.Feel-Free.avi_snapshot_01.28.13_%5B2010.08.31_19.18.30%5D.jpg